<svg width="166" height="39" viewBox="0 0 166 39" fill="none" xmlns="http://www.w3.org/2000/svg">
<g clip-path="url(#clip0)">
<path d="M135.141 4.00549C138.759 8.15144 140.745 13.5622 140.745 19.3244C140.745 25.0866 138.688 30.5677 134.928 34.7839C135.85 35.4866 136.773 36.0487 137.766 36.6109C141.667 31.8325 143.867 25.719 143.867 19.2541C143.867 12.9298 141.738 6.95684 137.908 2.17847C136.914 2.67036 135.992 3.30279 135.141 4.00549ZM130.601 8.85414C133.013 11.7352 134.361 15.3893 134.361 19.2541C134.361 23.2595 132.942 26.9839 130.459 29.865L130.601 30.0758C131.239 30.9893 131.878 31.8325 132.658 32.6055C135.85 29.0217 137.624 24.3136 137.624 19.2541C137.624 14.3352 135.921 9.69738 132.8 6.1136C131.949 7.02711 131.239 7.87036 130.601 8.85414ZM127.692 15.7406C128.118 16.865 128.331 18.0595 128.331 19.2541C128.331 20.4487 128.118 21.6433 127.692 22.7677C127.976 24.1731 128.331 25.5082 128.827 26.7731C130.317 24.5947 131.168 21.9947 131.168 19.2541C131.168 16.5839 130.388 13.9839 128.898 11.8758C128.402 13.1406 127.976 14.4758 127.692 15.7406Z" fill="#4E8398"/>
<path d="M146.988 15.8108L145.073 0C143.583 0.140541 142.093 0.421622 140.745 0.913513C144.009 5.97297 145.995 12.3676 145.995 19.3243C145.995 26.3514 144.009 32.7459 140.745 37.8054C142.235 38.2973 143.867 38.5784 145.569 38.6486L147.13 22.627C147.201 22.627 147.343 22.627 147.414 22.627L148.832 38.5081C150.038 38.3676 151.174 38.1568 152.309 37.8054L148.265 22.4865C148.407 22.4865 148.478 22.4162 148.549 22.4162L155.217 36.6108C156.281 36.1189 157.274 35.4865 158.197 34.7838L149.258 21.9946C149.329 21.9243 149.471 21.8541 149.542 21.7838L160.538 32.6757C161.318 31.8324 162.098 30.9189 162.737 29.9351L150.18 21.0811C150.251 21.0108 150.322 20.8703 150.393 20.8L164.297 27.1946C164.794 26.1405 165.149 25.0865 165.432 23.8919L150.748 19.8865C150.748 19.7459 150.819 19.6757 150.819 19.5351L166 20.8C166.071 20.3081 166.071 19.7459 166.071 19.2541V18.973C166.071 18.4108 166.071 17.9189 166 17.3568L150.89 18.6216C150.89 18.4811 150.89 18.4108 150.819 18.2703L165.503 14.3351C165.22 13.2108 164.794 12.0865 164.368 11.1027L150.535 17.4973C150.464 17.3568 150.393 17.2865 150.322 17.1459L162.808 8.36216C162.169 7.37838 161.46 6.46486 160.609 5.62162L149.684 16.6541C149.613 16.5838 149.471 16.5135 149.4 16.4432L158.197 3.79459C157.274 3.09189 156.281 2.45946 155.217 1.96757L148.62 16.0216C148.478 15.9514 148.407 15.9514 148.265 15.8811L152.309 0.772973C151.174 0.421622 150.038 0.210811 148.832 0.0702703L147.414 15.7405C147.414 15.7405 147.414 15.7405 147.343 15.7405C147.201 15.7405 147.059 15.7405 146.988 15.8108Z" fill="#E2992F"/>
<path d="M14.4721 29.7947V26.2812H14.4012C13.1952 28.8812 10.0739 30.2866 7.37813 30.2866C1.06445 30.2866 0.0712891 26.0703 0.0712891 24.1028C0.0712891 16.7947 8.01659 16.4433 13.7627 16.4433H14.1884V15.319C14.1884 11.5947 12.8405 9.69738 9.15163 9.69738C6.81061 9.69738 4.6824 10.1893 2.62514 11.5244V8.92441C4.3277 8.08116 7.16531 7.44873 9.15163 7.44873C14.614 7.44873 16.955 9.90819 16.955 15.6001V25.2271C16.955 26.9839 16.955 28.319 17.1679 29.7947H14.4721ZM14.1884 20.0974V18.7622H13.408C8.65505 18.7622 2.97984 19.2541 2.97984 24.0325C2.97984 26.9136 5.0371 27.9676 7.59095 27.9676C14.0465 27.9676 14.1884 22.4866 14.1884 20.0974ZM21.708 29.7947H24.4747V17.7082C24.4747 14.0541 26.0354 9.76765 31.0721 9.76765C34.832 9.76765 36.3217 12.4379 36.3217 16.5136V29.7947H39.0174V15.8109C39.0174 11.0325 36.9602 7.44873 31.4268 7.44873C26.8157 7.44873 25.1841 9.90819 24.2619 11.8758H24.1909V8.01089H21.5662C21.708 9.76765 21.708 11.4541 21.708 13.1406V29.7947ZM45.8986 18.8325C45.8986 23.119 47.6721 27.4055 52.2833 27.4055C57.2491 27.4055 59.0226 22.7676 59.0226 18.8325C59.0226 13.5622 57.4619 9.69738 52.4251 9.69738C47.2465 9.76765 45.8986 14.6163 45.8986 18.8325ZM61.7892 7.94062V27.9676C61.7892 34.0812 59.0226 39.0001 51.361 39.0001C48.4525 39.0001 45.7568 38.1568 44.6217 37.8758L44.8345 35.2055C46.5371 36.0487 48.9491 36.7514 51.361 36.7514C58.3841 36.7514 59.0226 31.692 59.0226 25.5082H58.9516C57.4619 28.6703 55.0499 29.7947 52.2123 29.7947C45.1183 29.7947 42.8482 23.6812 42.8482 18.9028C42.8482 12.2974 45.473 7.44873 51.9995 7.44873C54.979 7.44873 56.8944 7.80008 58.9516 10.4704H59.0226V8.01089H61.7892V7.94062ZM79.808 29.7947V26.2812H79.7371C78.5311 28.8812 75.4098 30.2866 72.714 30.2866C66.4004 30.2866 65.4072 26.0703 65.4072 24.1028C65.4072 16.7947 73.3525 16.4433 79.0986 16.4433H79.5952V15.319C79.5952 11.5947 78.2474 9.69738 74.5585 9.69738C72.2174 9.69738 70.0892 10.1893 68.032 11.5244V8.92441C69.7345 8.08116 72.5721 7.44873 74.5585 7.44873C80.0209 7.44873 82.3619 9.90819 82.3619 15.6001V25.2271C82.3619 26.9839 82.3619 28.319 82.5747 29.7947H79.808ZM79.5952 20.0974V18.7622H78.8149C74.0619 18.7622 68.3867 19.2541 68.3867 24.0325C68.3867 26.9136 70.4439 27.9676 72.9978 27.9676C79.4533 27.9676 79.5952 22.4866 79.5952 20.0974ZM85.9089 29.7947H102.438V27.4758H89.1012L102.438 10.2595V7.94062H86.4055V10.2595H99.3166L85.9798 27.546V29.7947H85.9089ZM118.754 29.7947V26.2812H118.683C117.477 28.8812 114.356 30.2866 111.66 30.2866C105.346 30.2866 104.353 26.0703 104.353 24.1028C104.353 16.7947 112.299 16.4433 118.045 16.4433H118.541V15.319C118.541 11.5947 117.194 9.69738 113.505 9.69738C111.164 9.69738 109.035 10.1893 106.978 11.5244V8.92441C108.681 8.08116 111.518 7.44873 113.505 7.44873C118.967 7.44873 121.308 9.90819 121.308 15.6001V25.2271C121.308 26.9839 121.308 28.319 121.521 29.7947H118.754ZM118.47 20.0974V18.7622H117.69C112.937 18.7622 107.262 19.2541 107.262 24.0325C107.262 26.9136 109.319 27.9676 111.873 27.9676C118.329 27.9676 118.47 22.4866 118.47 20.0974Z" fill="#4E8398"/>
</g>
<defs>
<clipPath id="clip0">
<rect width="166" height="39" fill="white"/>
</clipPath>
</defs>
</svg>
